<?xml version="1.0" encoding="UTF-8" standalone="no"?>
<svg width="1440px" height="1024px" viewBox="0 0 1440 1024" version="1.1" xmlns="http://www.w3.org/2000/svg" xmlns:xlink="http://www.w3.org/1999/xlink">
    <!-- Generator: Sketch 41.2 (35397) - http://www.bohemiancoding.com/sketch -->
    <title>Day</title>
    <desc>Created with Sketch.</desc>
    <defs>
        <radialGradient cx="50%" cy="51.1036992%" fx="50%" fy="51.1036992%" r="50%" id="radialGradient-1">
            <stop stop-color="#D85B00" offset="0%"></stop>
            <stop stop-color="#F38630" offset="31.0128348%"></stop>
            <stop stop-color="#E2C58B" offset="48.0867347%"></stop>
            <stop stop-color="#DDE1CA" offset="60.4691486%"></stop>
            <stop stop-color="#A7DBD8" offset="74.2885045%"></stop>
            <stop stop-color="#69D2E7" stop-opacity="0" offset="100%"></stop>
        </radialGradient>
        <rect id="path-2" x="0" y="0" width="216.155089" height="216.155089"></rect>
        <rect id="path-4" x="0" y="0" width="216.155089" height="216.155089"></rect>
        <linearGradient x1="49.171589%" y1="7.929713%" x2="50.2613809%" y2="88.3055611%" id="linearGradient-6">
            <stop stop-color="#FFCA0A" offset="0%"></stop>
            <stop stop-color="#FDE800" offset="100%"></stop>
        </linearGradient>
        <linearGradient x1="82.6067845%" y1="113.704038%" x2="24.8968494%" y2="27.8486904%" id="linearGradient-7">
            <stop stop-color="#FFCA0A" offset="0%"></stop>
            <stop stop-color="#FDE800" offset="100%"></stop>
        </linearGradient>
        <linearGradient x1="38.3722954%" y1="19.0339163%" x2="125.640526%" y2="80.6134661%" id="linearGradient-8">
            <stop stop-color="#FFCA0A" offset="0%"></stop>
            <stop stop-color="#FDE800" offset="100%"></stop>
        </linearGradient>
        <linearGradient x1="79.0603447%" y1="52.1929936%" x2="-1.41683467%" y2="49.8754336%" id="linearGradient-9">
            <stop stop-color="#FFCA0A" offset="0%"></stop>
            <stop stop-color="#FDE800" offset="100%"></stop>
        </linearGradient>
        <linearGradient x1="95.4078587%" y1="52.3619314%" x2="8.60275222%" y2="49.5126019%" id="linearGradient-10">
            <stop stop-color="#FEBE13" offset="0%"></stop>
            <stop stop-color="#FDE800" offset="100%"></stop>
        </linearGradient>
        <linearGradient x1="49.7267716%" y1="7.12317175%" x2="50.6305761%" y2="89.5310362%" id="linearGradient-11">
            <stop stop-color="#FFCA0A" offset="0%"></stop>
            <stop stop-color="#FDE800" offset="100%"></stop>
        </linearGradient>
        <linearGradient x1="-5.70231459%" y1="67.5073616%" x2="90.0399916%" y2="49.009315%" id="linearGradient-12">
            <stop stop-color="#FFCA0A" offset="0%"></stop>
            <stop stop-color="#FDE800" offset="100%"></stop>
        </linearGradient>
        <linearGradient x1="-14.8820506%" y1="35.1582593%" x2="74.1620325%" y2="50.748952%" id="linearGradient-13">
            <stop stop-color="#FDE800" offset="0%"></stop>
            <stop stop-color="#FFCA0A" offset="100%"></stop>
        </linearGradient>
        <linearGradient x1="0.996296668%" y1="-0.431805538%" x2="62.3699447%" y2="53.4316558%" id="linearGradient-14">
            <stop stop-color="#FFCA0A" offset="0%"></stop>
            <stop stop-color="#FDE800" offset="100%"></stop>
        </linearGradient>
        <linearGradient x1="-45.7458564%" y1="84.1123112%" x2="63.277378%" y2="34.245004%" id="linearGradient-15">
            <stop stop-color="#FBB118" offset="0%"></stop>
            <stop stop-color="#FCE005" offset="100%"></stop>
        </linearGradient>
        <linearGradient x1="114.505065%" y1="28.8878272%" x2="26.8164471%" y2="102.566303%" id="linearGradient-16">
            <stop stop-color="#FFCA0A" offset="0%"></stop>
            <stop stop-color="#FDE800" offset="87.88%"></stop>
            <stop stop-color="#FFCA0A" offset="100%"></stop>
        </linearGradient>
        <linearGradient x1="64.358014%" y1="117.437271%" x2="40.8395834%" y2="-33.8708802%" id="linearGradient-17">
            <stop stop-color="#F5841F" offset="0%"></stop>
            <stop stop-color="#FBBB14" offset="100%"></stop>
        </linearGradient>
        <linearGradient x1="23.6698683%" y1="140.592742%" x2="79.0382205%" y2="18.8516545%" id="linearGradient-18">
            <stop stop-color="#F89A1C" offset="0%"></stop>
            <stop stop-color="#FBBB14" offset="100%"></stop>
        </linearGradient>
        <linearGradient x1="-5.16969443%" y1="118.802586%" x2="63.4114692%" y2="26.2701058%" id="linearGradient-19">
            <stop stop-color="#F89A1C" offset="0%"></stop>
            <stop stop-color="#FBBB14" offset="100%"></stop>
        </linearGradient>
        <linearGradient x1="65.3146508%" y1="-6.85746753%" x2="50.0019118%" y2="69.9476751%" id="linearGradient-20">
            <stop stop-color="#F89A1C" offset="0%"></stop>
            <stop stop-color="#FBBB14" offset="100%"></stop>
        </linearGradient>
        <linearGradient x1="19.0543911%" y1="99.3559395%" x2="81.3134692%" y2="17.0828483%" id="linearGradient-21">
            <stop stop-color="#F26522" offset="0%"></stop>
            <stop stop-color="#FDC70C" offset="100%"></stop>
        </linearGradient>
        <linearGradient x1="70.8487173%" y1="51.0457622%" x2="3.02712547%" y2="26.8911307%" id="linearGradient-22">
            <stop stop-color="#F89A1C" offset="0%"></stop>
            <stop stop-color="#FBBB14" offset="100%"></stop>
        </linearGradient>
        <linearGradient x1="113.620503%" y1="102.077241%" x2="48.792585%" y2="68.1413742%" id="linearGradient-23">
            <stop stop-color="#F89A1C" offset="0%"></stop>
            <stop stop-color="#FBBB14" offset="100%"></stop>
        </linearGradient>
        <linearGradient x1="29.6874656%" y1="203.364302%" x2="61.1194947%" y2="-33.9497324%" id="linearGradient-24">
            <stop stop-color="#FFCA0A" offset="0%"></stop>
            <stop stop-color="#FDE800" offset="100%"></stop>
        </linearGradient>
        <linearGradient x1="23.714662%" y1="92.2779079%" x2="57.5522503%" y2="11.0510255%" id="linearGradient-25">
            <stop stop-color="#F89A1C" offset="0%"></stop>
            <stop stop-color="#FBBB14" offset="100%"></stop>
        </linearGradient>
        <linearGradient x1="29.2034914%" y1="121.145786%" x2="61.3846411%" y2="-19.0302513%" id="linearGradient-26">
            <stop stop-color="#F89A1C" offset="0%"></stop>
            <stop stop-color="#FBBB14" offset="100%"></stop>
        </linearGradient>
        <linearGradient x1="99.726178%" y1="100.216221%" x2="-0.0521507609%" y2="36.351275%" id="linearGradient-27">
            <stop stop-color="#F89A1C" offset="0%"></stop>
            <stop stop-color="#FBBB14" offset="100%"></stop>
        </linearGradient>
        <linearGradient x1="26.8887147%" y1="171.838297%" x2="62.6524651%" y2="-8.88769516%" id="linearGradient-28">
            <stop stop-color="#FFCA0A" offset="0%"></stop>
            <stop stop-color="#FDE800" offset="100%"></stop>
        </linearGradient>
        <linearGradient x1="-83.9958318%" y1="113.515585%" x2="70.9245926%" y2="18.2600704%" id="linearGradient-29">
            <stop stop-color="#F89A1C" offset="0%"></stop>
            <stop stop-color="#FDC30F" offset="100%"></stop>
        </linearGradient>
        <linearGradient x1="85.7850222%" y1="127.381131%" x2="36.9037265%" y2="21.6816133%" id="linearGradient-30">
            <stop stop-color="#F89A1C" offset="0%"></stop>
            <stop stop-color="#FBBB14" offset="100%"></stop>
        </linearGradient>
        <linearGradient x1="14.5172972%" y1="136.040404%" x2="91.710702%" y2="10.0842124%" id="linearGradient-31">
            <stop stop-color="#F89A1C" offset="0%"></stop>
            <stop stop-color="#FFD003" offset="100%"></stop>
        </linearGradient>
        <linearGradient x1="59.2484763%" y1="1.07292578%" x2="22.6950441%" y2="82.3414874%" id="linearGradient-32">
            <stop stop-color="#F6871F" offset="0%"></stop>
            <stop stop-color="#FBBB14" offset="100%"></stop>
        </linearGradient>
        <linearGradient x1="121.412474%" y1="51.2242292%" x2="-20.5197588%" y2="45.2558551%" id="linearGradient-33">
            <stop stop-color="#FBBB14" offset="0%"></stop>
            <stop stop-color="#F47B20" offset="100%"></stop>
        </linearGradient>
        <linearGradient x1="81.1594472%" y1="136.647591%" x2="51.1209352%" y2="53.1173923%" id="linearGradient-34">
            <stop stop-color="#FFCA0A" offset="0%"></stop>
            <stop stop-color="#FDE800" offset="100%"></stop>
        </linearGradient>
        <rect id="path-35" x="0" y="0" width="216.155089" height="216.155089"></rect>
        <rect id="path-37" x="0" y="0" width="216.155089" height="216.155089"></rect>
        <rect id="path-39" x="0" y="0" width="216.155089" height="216.155089"></rect>
        <rect id="path-41" x="0" y="0" width="216.155089" height="216.155089"></rect>
        <rect id="path-43" x="0" y="0" width="216.155089" height="216.155089"></rect>
    </defs>
    <g id="Backgrounds" stroke="none" stroke-width="1" fill="none" fill-rule="evenodd">
        <g id="Day">
            <g id="Full-Group" transform="translate(-4.000000, 0.000000)">
                <rect id="Gradient" fill="url(#radialGradient-1)" x="4" y="0" width="1440" height="1027"></rect>
                <g id="Rays" transform="translate(722.000000, 745.500000) scale(1, -1) translate(-722.000000, -745.500000) translate(0.000000, 464.000000)" opacity="0.4" fill="#F3F3CB">
                    <g id="Group">
                        <polygon id="Shape" points="1444 442 724 515 1444 460"></polygon>
                        <polygon id="Shape" points="1444 550.450012 724 515 1444 562.730011"></polygon>
                        <polygon id="Shape" points="1444 519.339996 724 515 1444 531.299988"></polygon>
                        <polygon id="Shape" points="1444 482 724 515 1444 498"></polygon>
                        <polygon id="Shape" points="1444 405 724 515 1444 423"></polygon>
                        <polygon id="Shape" points="1444 351 724 515 1444 376"></polygon>
                        <polygon id="Shape" points="1444 255 724 515 1444 290"></polygon>
                        <polygon id="Shape" points="1444 135 724 515 1444 178"></polygon>
                        <polygon id="Shape" points="1444 0.513557913 1387.88598 0.513557913 724 515 1444 22"></polygon>
                        <polygon id="Shape" points="724 515 1238.84866 0.513557913 1182.8682 0.513557913"></polygon>
                        <polygon id="Shape" points="724 515 1047.38988 0.513557913 995.756097 0.513557913"></polygon>
                        <polygon id="Shape" points="724 515 867.295158 0.513557913 817.499514 0.513557913"></polygon>
                        <polygon id="Shape" points="724 515 690.728944 0.513557913 640.589099 0.513557913"></polygon>
                        <polygon id="Shape" points="724 515 510.473831 0.513557913 457.737159 0.513557913"></polygon>
                        <polygon id="Shape" points="724 515 318.674461 0.513557913 260.632405 0.513557913"></polygon>
                        <polygon id="Shape" points="724 515 105.399458 0.513557913 38.2874295 0.513557913"></polygon>
                        <polygon id="Shape" points="0 94.5903378 0 135.064755 724 515"></polygon>
                        <polygon id="Shape" points="0 222.374482 0 251.163015 724 515"></polygon>
                        <polygon id="Shape" points="0 317.98803 0 340.199898 724 515"></polygon>
                        <polygon id="Shape" points="0 394.955325 0 413.249117 724 515"></polygon>
                        <polygon id="Shape" points="4 432 4 452 724 515"></polygon>
                        <polygon id="Shape" points="0 470 0 487.5 724 515"></polygon>
                        <polygon id="Shape" points="4 505 4 519 724 515"></polygon>
                        <polygon id="Shape" points="4 535 4 549 724 515"></polygon>
                    </g>
                </g>
                <g id="Rays" opacity="0.4" fill="#F3F3CB">
                    <g id="Group">
                        <polygon id="Shape" points="1444 434.940002 724 512 1444 446.850006"></polygon>
                        <polygon id="Shape" points="1444 402.709991 724 512 1444 414.709991"></polygon>
                        <polygon id="Shape" points="1444 369.309998 724 512 1444 381.790009"></polygon>
                        <polygon id="Shape" points="1444 335.190002 724 512 1444 347.619995"></polygon>
                        <polygon id="Shape" points="1444 294.309998 724 512 1444 305.369995"></polygon>
                        <polygon id="Shape" points="1444 245.550003 724 512 1444 259.309998"></polygon>
                        <polygon id="Shape" points="1444 183.649994 724 512 1444 202.020004"></polygon>
                        <polygon id="Shape" points="1444 98.5100021 724 512 1444 125.330002"></polygon>
                        <polygon id="Shape" points="1438.07629 0 1387.89001 0 724 512 1444 11.9700003"></polygon>
                        <polygon id="Shape" points="724 512 1238.84866 0 1182.8682 0"></polygon>
                        <polygon id="Shape" points="724 512 1047.38988 0 995.756097 0"></polygon>
                        <polygon id="Shape" points="724 512 867.295158 0 817.499514 0"></polygon>
                        <polygon id="Shape" points="724 512 690.728944 0 640.589099 0"></polygon>
                        <polygon id="Shape" points="724 512 510.473831 0 457.737159 0"></polygon>
                        <polygon id="Shape" points="724 512 318.674461 0 260.632405 0"></polygon>
                        <polygon id="Shape" points="724 512 105.399458 0 38.2874295 0"></polygon>
                        <polygon id="Shape" points="0 70.0811727 0 98.7846472 724 512"></polygon>
                        <polygon id="Shape" points="0 160.702587 0 181.118717 724 512"></polygon>
                        <polygon id="Shape" points="0 228.509396 0 244.261514 724 512"></polygon>
                        <polygon id="Shape" points="0 283.092734 0 296.066248 724 512"></polygon>
                        <polygon id="Shape" points="0 329.673305 0 340.967054 724 512"></polygon>
                        <polygon id="Shape" points="0 371.445152 0 381.780618 733 512"></polygon>
                        <polygon id="Shape" points="0 410.60457 0 420.51421 724 512"></polygon>
                        <polygon id="Shape" points="0 448.868715 0 458.812975 724 512"></polygon>
                    </g>
                </g>
                <g id="Sun" transform="translate(619.844911, 407.844911)">
                    <g id="Layer_1">
                        <g id="Group">
                            <g id="Clipped">
                                <mask id="mask-3" fill="white">
                                    <use xlink:href="#path-2"></use>
                                </mask>
                                <g id="SVGID_1_"></g>
                            </g>
                            <g id="Clipped">
                                <mask id="mask-5" fill="white">
                                    <use xlink:href="#path-4"></use>
                                </mask>
                                <g id="SVGID_1_"></g>
                                <g id="Group" mask="url(#mask-5)">
                                    <g transform="translate(19.093700, 22.696284)" id="Shape">
                                        <polygon fill="url(#linearGradient-6)" points="58.6122536 60.3739176 71.9951357 22.301441 113.137375 36.7687011"></polygon>
                                        <polygon fill="url(#linearGradient-7)" points="89.0703069 11.2260145 71.9951357 22.301441 113.137375 36.7687011"></polygon>
                                        <polygon fill="url(#linearGradient-8)" points="132.910882 70.2957964 156.677494 52.99042 158.98567 88.8714443"></polygon>
                                        <polygon fill="url(#linearGradient-9)" points="134.295716 27.6084087 156.677494 52.99042 132.910882 70.2957964"></polygon>
                                        <polygon fill="url(#linearGradient-10)" points="145.140577 107.445291 158.98567 88.8714443 132.910882 70.2957964"></polygon>
                                        <polygon fill="url(#linearGradient-11)" points="89.0703069 11.2260145 113.137375 36.7687011 134.295716 27.6084087"></polygon>
                                        <polygon fill="url(#linearGradient-12)" points="58.6122536 60.3739176 29.3351276 58.4332052 49.7747528 22.9365767"></polygon>
                                        <polygon fill="url(#linearGradient-13)" points="71.9951357 22.301441 49.7747528 22.9365767 58.6122536 60.3739176"></polygon>
                                        <polygon fill="url(#linearGradient-14)" points="17.926462 74.193433 37.3825816 137.641076 132.910882 70.2957964"></polygon>
                                        <polygon fill="url(#linearGradient-15)" points="145.140577 107.445291 116.253971 153.61854 132.910882 70.2957964"></polygon>
                                        <polygon fill="url(#linearGradient-16)" points="37.3825816 137.641076 116.253971 153.61854 132.910882 70.2957964"></polygon>
                                        <polygon fill="url(#linearGradient-17)" points="37.3825816 137.641076 60.8851244 169.515305 116.253971 153.61854"></polygon>
                                        <polygon fill="url(#linearGradient-18)" points="116.253971 153.61854 161.375265 137.641076 145.140577 107.445291"></polygon>
                                        <polygon fill="url(#linearGradient-19)" points="178.193932 84.8286236 156.677494 52.99042 158.98567 88.8714443"></polygon>
                                        <polygon fill="url(#linearGradient-20)" points="134.295716 27.6084087 116.253971 0.343686591 89.0703069 11.2260145"></polygon>
                                        <polygon fill="url(#linearGradient-21)" points="17.926462 74.193433 0.118885299 84.929496 37.3825816 137.641076"></polygon>
                                        <polygon fill="url(#linearGradient-22)" points="49.7747528 22.9365767 17.926462 32.4452391 29.3351276 58.4332052"></polygon>
                                        <polygon fill="url(#linearGradient-23)" points="89.0703069 11.2260145 60.8851244 0.343686591 49.7747528 22.9365767"></polygon>
                                        <polygon fill="url(#linearGradient-24)" points="71.9951357 22.301441 89.0703069 11.2260145 49.7747528 22.9365767"></polygon>
                                        <polygon fill="url(#linearGradient-25)" points="134.295716 27.6084087 161.375265 33.4345089 156.677494 52.99042"></polygon>
                                        <polygon fill="url(#linearGradient-26)" points="116.253971 170.948414 136.493653 146.451918 89.0703069 161.423179"></polygon>
                                        <polygon fill="url(#linearGradient-27)" points="17.926462 137.641076 42.3166817 144.332877 12.8194378 102.895586"></polygon>
                                        <polygon fill="url(#linearGradient-28)" points="17.926462 74.193433 29.3351276 58.4332052 53.3225784 60.0233861"></polygon>
                                        <polygon fill="url(#linearGradient-29)" points="17.926462 74.193433 17.926462 32.4452391 29.3351276 58.4332052"></polygon>
                                        <polygon fill="url(#linearGradient-30)" points="178.193932 84.8286236 145.140577 107.445291 158.98567 88.8714443"></polygon>
                                        <polygon fill="url(#linearGradient-31)" points="0.118885299 84.929496 17.926462 74.193433 17.926462 60.3739176"></polygon>
                                        <polygon fill="url(#linearGradient-32)" points="152.29531 120.753599 159.977102 97.2932068 145.140577 107.445291"></polygon>
                                        <polygon fill="url(#linearGradient-33)" points="161.375265 137.641076 152.29531 120.753599 159.977102 97.2932068"></polygon>
                                        <polygon fill="url(#linearGradient-34)" points="17.926462 74.193433 134.295716 27.6084087 132.910882 70.2957964"></polygon>
                                    </g>
                                </g>
                            </g>
                            <g id="Clipped">
                                <mask id="mask-36" fill="white">
                                    <use xlink:href="#path-35"></use>
                                </mask>
                                <g id="SVGID_1_"></g>
                            </g>
                            <g id="Clipped">
                                <mask id="mask-38" fill="white">
                                    <use xlink:href="#path-37"></use>
                                </mask>
                                <g id="SVGID_1_"></g>
                            </g>
                            <g id="Clipped">
                                <mask id="mask-40" fill="white">
                                    <use xlink:href="#path-39"></use>
                                </mask>
                                <g id="SVGID_1_"></g>
                            </g>
                            <g id="Clipped">
                                <mask id="mask-42" fill="white">
                                    <use xlink:href="#path-41"></use>
                                </mask>
                                <g id="SVGID_1_"></g>
                            </g>
                            <g id="Clipped">
                                <mask id="mask-44" fill="white">
                                    <use xlink:href="#path-43"></use>
                                </mask>
                                <g id="SVGID_1_"></g>
                            </g>
                        </g>
                    </g>
                </g>
            </g>
        </g>
    </g>
</svg>